<?xml version="1.0" encoding="UTF-8" standalone="no"?> <svg width="64" height="64" viewBox="0 0 64 64" fill="none" xmlns="http://www.w3.org/2000/svg">
<path d="M51 49H13C11.8954 49 11 49.8954 11 51V59C11 60.1046 11.8954 61 13 61H51C52.1046 61 53 60.1046 53 59V51C53 49.8954 52.1046 49 51 49Z" fill="#EE8700"/>
<path d="M53 16.07V37H42C41.7348 37 41.4804 36.8946 41.2929 36.7071C41.1054 36.5196 41 36.2652 41 36V16.07C40.9989 15.7412 41.0797 15.4173 41.2351 15.1275C41.3905 14.8377 41.6155 14.5911 41.89 14.41L45 12.33L45.89 11.74C46.2178 11.5184 46.6044 11.4 47 11.4C47.3956 11.4 47.7822 11.5184 48.11 11.74L50 13L52.11 14.41C52.3845 14.5911 52.6095 14.8377 52.7649 15.1275C52.9203 15.4173 53.0011 15.7412 53 16.07V16.07Z" fill="#FF9811"/>
<path d="M49 16.07V37H42C41.7348 37 41.4804 36.8946 41.2929 36.7071C41.1054 36.5196 41 36.2652 41 36V16.07C40.9989 15.7412 41.0797 15.4172 41.2351 15.1274C41.3905 14.8376 41.6155 14.5911 41.89 14.41L45 12.33L46 13L48.11 14.41C48.3845 14.5911 48.6095 14.8376 48.7649 15.1274C48.9203 15.4172 49.0011 15.7412 49 16.07V16.07Z" fill="#EE8700"/>
<path d="M47 16.07V37H36C35.7348 37 35.4804 36.8946 35.2929 36.7071C35.1054 36.5196 35 36.2652 35 36V16.07C34.9989 15.7412 35.0797 15.4173 35.2351 15.1275C35.3905 14.8377 35.6155 14.5911 35.89 14.41L39 12.33L39.89 11.74C40.2178 11.5184 40.6044 11.4 41 11.4C41.3956 11.4 41.7822 11.5184 42.11 11.74L44 13L46.11 14.41C46.3845 14.5911 46.6095 14.8377 46.7649 15.1275C46.9203 15.4173 47.0011 15.7412 47 16.07V16.07Z" fill="#3D9AE2"/>
<path d="M43 16.07V37H36C35.7348 37 35.4804 36.8946 35.2929 36.7071C35.1054 36.5196 35 36.2652 35 36V16.07C34.9989 15.7412 35.0797 15.4172 35.2351 15.1274C35.3905 14.8376 35.6155 14.5911 35.89 14.41L39 12.33L40 13L42.11 14.41C42.3845 14.5911 42.6095 14.8376 42.7649 15.1274C42.9203 15.4172 43.0011 15.7412 43 16.07Z" fill="#1E81CE"/>
<path d="M41 16.07V37H30C29.7348 37 29.4804 36.8946 29.2929 36.7071C29.1054 36.5196 29 36.2652 29 36V16.07C28.9989 15.7412 29.0797 15.4173 29.2351 15.1275C29.3905 14.8377 29.6155 14.5911 29.89 14.41L33 12.33L33.89 11.74C34.2178 11.5184 34.6044 11.4 35 11.4C35.3956 11.4 35.7822 11.5184 36.11 11.74L38 13L40.11 14.41C40.3845 14.5911 40.6095 14.8377 40.7649 15.1275C40.9203 15.4173 41.0011 15.7412 41 16.07V16.07Z" fill="#FF9811"/>
<path d="M37 16.07V37H30C29.7348 37 29.4804 36.8946 29.2929 36.7071C29.1054 36.5196 29 36.2652 29 36V16.07C28.9989 15.7412 29.0797 15.4172 29.2351 15.1274C29.3905 14.8376 29.6155 14.5911 29.89 14.41L33 12.33L34 13L36.11 14.41C36.3845 14.5911 36.6095 14.8376 36.7649 15.1274C36.9203 15.4172 37.0011 15.7412 37 16.07V16.07Z" fill="#EE8700"/>
<path d="M35 16.07V37H24C23.7348 37 23.4804 36.8946 23.2929 36.7071C23.1054 36.5196 23 36.2652 23 36V16.07C22.9989 15.7412 23.0797 15.4173 23.2351 15.1275C23.3905 14.8377 23.6155 14.5911 23.89 14.41L27 12.33L27.89 11.74C28.2178 11.5184 28.6044 11.4 29 11.4C29.3956 11.4 29.7822 11.5184 30.11 11.74L32 13L34.11 14.41C34.3845 14.5911 34.6095 14.8377 34.7649 15.1275C34.9203 15.4173 35.0011 15.7412 35 16.07V16.07Z" fill="#3D9AE2"/>
<path d="M31.41 45.59C31.598 45.7733 31.7471 45.9927 31.8485 46.2349C31.9499 46.4772 32.0014 46.7374 32 47C31.9984 47.5299 31.7872 48.0377 31.4125 48.4125C31.0377 48.7872 30.5299 48.9984 30 49H18C17.4708 48.9961 16.9643 48.7841 16.5901 48.4099C16.2159 48.0356 16.0039 47.5292 16 47C16.0016 46.4701 16.2128 45.9623 16.5875 45.5875C16.9623 45.2128 17.4701 45.0016 18 45H30C30.2626 44.9986 30.5228 45.0501 30.765 45.1515C31.0073 45.2529 31.2266 45.402 31.41 45.59V45.59Z" fill="#5AAAE7"/>
<path d="M31.41 41.59C31.598 41.7733 31.7471 41.9927 31.8485 42.2349C31.9499 42.4772 32.0014 42.7374 32 43C31.9984 43.5299 31.7872 44.0377 31.4125 44.4125C31.0377 44.7872 30.5299 44.9984 30 45H18C17.4708 44.9961 16.9643 44.7841 16.5901 44.4099C16.2159 44.0356 16.0039 43.5292 16 43C16.0016 42.4701 16.2128 41.9623 16.5875 41.5875C16.9623 41.2128 17.4701 41.0016 18 41H30C30.2626 40.9986 30.5228 41.0501 30.765 41.1515C31.0073 41.2529 31.2266 41.402 31.41 41.59Z" fill="#3D9AE2"/>
<path d="M48 53H16C15.4477 53 15 53.4477 15 54V56C15 56.5523 15.4477 57 16 57H48C48.5523 57 49 56.5523 49 56V54C49 53.4477 48.5523 53 48 53Z" fill="#E6E7E8"/>
<path d="M47.41 41.59C47.598 41.7733 47.7471 41.9927 47.8485 42.2349C47.9499 42.4772 48.0014 42.7374 48 43C47.9984 43.5299 47.7872 44.0377 47.4125 44.4125C47.0377 44.7872 46.5299 44.9984 46 45H34C33.4708 44.9961 32.9644 44.7841 32.5901 44.4099C32.2159 44.0356 32.0039 43.5292 32 43C32.0016 42.4701 32.2128 41.9623 32.5875 41.5875C32.9623 41.2128 33.4701 41.0016 34 41H46C46.2626 40.9986 46.5228 41.0501 46.765 41.1515C47.0073 41.2529 47.2266 41.402 47.41 41.59Z" fill="#5AAAE7"/>
<path d="M47.41 45.59C47.598 45.7733 47.7471 45.9927 47.8485 46.2349C47.9499 46.4772 48.0014 46.7374 48 47C47.9984 47.5299 47.7872 48.0377 47.4125 48.4125C47.0377 48.7872 46.5299 48.9984 46 49H34C33.4708 48.9961 32.9644 48.7841 32.5901 48.4099C32.2159 48.0356 32.0039 47.5292 32 47C32.0016 46.4701 32.2128 45.9623 32.5875 45.5875C32.9623 45.2128 33.4701 45.0016 34 45H46C46.2626 44.9986 46.5228 45.0501 46.765 45.1515C47.0073 45.2529 47.2266 45.402 47.41 45.59V45.59Z" fill="#3D9AE2"/>
<path d="M61 4V56C61 56.2652 60.8946 56.5196 60.7071 56.7071C60.5196 56.8946 60.2652 57 60 57H58C57.7348 57 57.4804 56.8946 57.2929 56.7071C57.1054 56.5196 57 56.2652 57 56V4C57 3.73478 57.1054 3.48043 57.2929 3.29289C57.4804 3.10536 57.7348 3 58 3H60C60.2652 3 60.5196 3.10536 60.7071 3.29289C60.8946 3.48043 61 3.73478 61 4Z" fill="#CC7400"/>
<path d="M31 16.07V37H24C23.7348 37 23.4804 36.8946 23.2929 36.7071C23.1054 36.5196 23 36.2652 23 36V16.07C22.9989 15.7412 23.0797 15.4172 23.2351 15.1274C23.3905 14.8376 23.6155 14.5911 23.89 14.41L27 12.33L28 13L30.11 14.41C30.3845 14.5911 30.6095 14.8376 30.7649 15.1274C30.9203 15.4172 31.0011 15.7412 31 16.07V16.07Z" fill="#1E81CE"/>
<path d="M29 16.07V37H18C17.7348 37 17.4804 36.8946 17.2929 36.7071C17.1054 36.5196 17 36.2652 17 36V16.07C16.9989 15.7412 17.0797 15.4173 17.2351 15.1275C17.3905 14.8377 17.6155 14.5911 17.89 14.41L21 12.33L21.89 11.74C22.2178 11.5184 22.6044 11.4 23 11.4C23.3956 11.4 23.7822 11.5184 24.11 11.74L26 13L28.11 14.41C28.3845 14.5911 28.6095 14.8377 28.7649 15.1275C28.9203 15.4173 29.0011 15.7412 29 16.07V16.07Z" fill="#FF9811"/>
<path d="M25 16.07V37H18C17.7348 37 17.4804 36.8946 17.2929 36.7071C17.1054 36.5196 17 36.2652 17 36V16.07C16.9989 15.7412 17.0797 15.4172 17.2351 15.1274C17.3905 14.8376 17.6155 14.5911 17.89 14.41L21 12.33L22 13L24.11 14.41C24.3845 14.5911 24.6095 14.8376 24.7649 15.1274C24.9203 15.4172 25.0011 15.7412 25 16.07V16.07Z" fill="#EE8700"/>
<path d="M20 13L22.11 14.41C22.3845 14.5911 22.6095 14.8377 22.7649 15.1275C22.9203 15.4173 23.0011 15.7412 23 16.07V37H12C11.7348 37 11.4804 36.8946 11.2929 36.7071C11.1054 36.5196 11 36.2652 11 36V16.07C10.9989 15.7412 11.0797 15.4173 11.2351 15.1275C11.3905 14.8377 11.6155 14.5911 11.89 14.41L15.89 11.74C16.2178 11.5184 16.6044 11.4 17 11.4C17.3956 11.4 17.7822 11.5184 18.11 11.74L20 13Z" fill="#3D9AE2"/>
<path d="M7 7V56C7 56.2652 6.89464 56.5196 6.70711 56.7071C6.51957 56.8946 6.26522 57 6 57H4C3.73478 57 3.48043 56.8946 3.29289 56.7071C3.10536 56.5196 3 56.2652 3 56V4C3 3.73478 3.10536 3.48043 3.29289 3.29289C3.48043 3.10536 3.73478 3 4 3H6C6.26522 3 6.51957 3.10536 6.70711 3.29289C6.89464 3.48043 7 3.73478 7 4V7Z" fill="#CC7400"/>
<path d="M49 54V55H15V54C15 53.7348 15.1054 53.4804 15.2929 53.2929C15.4804 53.1054 15.7348 53 16 53H48C48.2652 53 48.5196 53.1054 48.7071 53.2929C48.8946 53.4804 49 53.7348 49 54Z" fill="#D8D7DA"/>
<path d="M62 56V4C61.9984 3.47005 61.7872 2.96227 61.4125 2.58753C61.0377 2.2128 60.5299 2.00158 60 2H58C57.4701 2.00158 56.9623 2.2128 56.5875 2.58753C56.2128 2.96227 56.0016 3.47005 56 4V6H8V4C7.99842 3.47005 7.7872 2.96227 7.41247 2.58753C7.03773 2.2128 6.52995 2.00158 6 2H4C3.47005 2.00158 2.96227 2.2128 2.58753 2.58753C2.2128 2.96227 2.00158 3.47005 2 4V56C2.00158 56.5299 2.2128 57.0377 2.58753 57.4125C2.96227 57.7872 3.47005 57.9984 4 58V60H2V62H8V60H6V58C6.52995 57.9984 7.03773 57.7872 7.41247 57.4125C7.7872 57.0377 7.99842 56.5299 8 56V8H16V10.58C15.7669 10.6615 15.5451 10.7724 15.34 10.91L11.34 13.57C10.9273 13.8434 10.5889 14.2149 10.355 14.6512C10.1212 15.0875 9.99919 15.575 10 16.07V36C10.0016 36.5299 10.2128 37.0377 10.5875 37.4125C10.9623 37.7872 11.4701 37.9984 12 38H52C52.5299 37.9984 53.0377 37.7872 53.4125 37.4125C53.7872 37.0377 53.9984 36.5299 54 36V16.07C54.0017 15.5773 53.881 15.0919 53.6489 14.6573C53.4168 14.2227 53.0804 13.8526 52.67 13.58L48.67 10.91C48.4611 10.7754 48.236 10.6679 48 10.59V8H56V56C56.0016 56.5299 56.2128 57.0377 56.5875 57.4125C56.9623 57.7872 57.4701 57.9984 58 58V60H56V62H62V60H60V58C60.5299 57.9984 61.0377 57.7872 61.4125 57.4125C61.7872 57.0377 61.9984 56.5299 62 56V56ZM6 56H4V4H6V56ZM42 8H46V10.59C45.7664 10.666 45.5443 10.7737 45.34 10.91L44 11.8L42.67 10.91C42.4611 10.7754 42.236 10.6679 42 10.59V8ZM36 8H40V10.59C39.7664 10.666 39.5443 10.7737 39.34 10.91L38 11.8L36.67 10.91C36.4611 10.7754 36.236 10.6679 36 10.59V8ZM30 8H34V10.59C33.7664 10.666 33.5443 10.7737 33.34 10.91L32 11.8L30.67 10.91C30.4611 10.7754 30.236 10.6679 30 10.59V8ZM24 8H28V10.59C27.7664 10.666 27.5443 10.7737 27.34 10.91L26 11.8L24.67 10.91C24.4611 10.7754 24.236 10.6679 24 10.59V8ZM18 8H22V10.59C21.7664 10.666 21.5443 10.7737 21.34 10.91L20 11.8L18.66 10.91C18.4549 10.7724 18.2331 10.6615 18 10.58V8ZM22 36H12V16.07C12.0009 15.9053 12.0424 15.7433 12.1209 15.5985C12.1994 15.4538 12.3124 15.3306 12.45 15.24L16.45 12.57C16.6121 12.4593 16.8037 12.4001 17 12.4001C17.1963 12.4001 17.3879 12.4593 17.55 12.57L21.55 15.24C21.6876 15.3306 21.8006 15.4538 21.8791 15.5985C21.9576 15.7433 21.9991 15.9053 22 16.07V36ZM34 36H30V24H28V36H24V16.07C24.0008 15.575 23.8788 15.0875 23.645 14.6512C23.4111 14.2149 23.0727 13.8434 22.66 13.57L21.8 13L22.45 12.57C22.6151 12.4623 22.8079 12.405 23.005 12.405C23.2021 12.405 23.3949 12.4623 23.56 12.57L27.56 15.24C27.6943 15.3332 27.8042 15.4572 27.8808 15.6016C27.9573 15.746 27.9982 15.9066 28 16.07V22H30V16.07C30.0017 15.5773 29.881 15.0919 29.6489 14.6573C29.4168 14.2227 29.0804 13.8526 28.67 13.58L27.8 13L28.45 12.57C28.6151 12.4623 28.8079 12.405 29.005 12.405C29.2021 12.405 29.3949 12.4623 29.56 12.57L33.56 15.24C33.6943 15.3332 33.8042 15.4572 33.8808 15.6016C33.9573 15.746 33.9982 15.9066 34 16.07V36ZM40 36H36V16.07C36.0017 15.5773 35.881 15.0919 35.6489 14.6573C35.4168 14.2227 35.0804 13.8526 34.67 13.58L33.8 13L34.45 12.57C34.6151 12.4623 34.8079 12.405 35.005 12.405C35.2021 12.405 35.3949 12.4623 35.56 12.57L39.56 15.24C39.6943 15.3332 39.8042 15.4572 39.8808 15.6016C39.9573 15.746 39.9982 15.9066 40 16.07V36ZM51.56 15.24C51.6943 15.3332 51.8042 15.4572 51.8808 15.6016C51.9573 15.746 51.9982 15.9066 52 16.07V36H48V32H46V36H42V16.07C42.0017 15.5773 41.881 15.0919 41.6489 14.6573C41.4168 14.2227 41.0804 13.8526 40.67 13.58L39.8 13L40.45 12.57C40.6151 12.4623 40.8079 12.405 41.005 12.405C41.2021 12.405 41.3949 12.4623 41.56 12.57L45.56 15.24C45.6943 15.3332 45.8042 15.4572 45.8808 15.6016C45.9573 15.746 45.9982 15.9066 46 16.07V30H48V16.07C48.0017 15.5773 47.881 15.0919 47.6489 14.6573C47.4168 14.2227 47.0804 13.8526 46.67 13.58L45.8 13L46.45 12.57C46.6133 12.4625 46.8045 12.4052 47 12.4052C47.1955 12.4052 47.3867 12.4625 47.55 12.57L51.56 15.24ZM58 56V4H60V56H58Z" fill="black"/>
<path d="M51 48H48.82C48.9364 47.6793 48.9973 47.3411 49 47C48.9981 46.2595 48.7199 45.5463 48.22 45C48.7199 44.4537 48.9981 43.7405 49 43C48.9976 42.2051 48.6808 41.4434 48.1187 40.8813C47.5566 40.3192 46.7949 40.0024 46 40H34C33.2595 40.0019 32.5463 40.2801 32 40.78C31.4537 40.2801 30.7405 40.0019 30 40H18C17.2051 40.0024 16.4434 40.3192 15.8813 40.8813C15.3192 41.4434 15.0024 42.2051 15 43C15.0019 43.7405 15.2801 44.4537 15.78 45C15.2801 45.5463 15.0019 46.2595 15 47C15.0027 47.3411 15.0636 47.6793 15.18 48H13C12.2051 48.0024 11.4434 48.3192 10.8813 48.8813C10.3192 49.4434 10.0024 50.2051 10 51V59C10.0024 59.7949 10.3192 60.5566 10.8813 61.1187C11.4434 61.6808 12.2051 61.9976 13 62H51C51.7949 61.9976 52.5566 61.6808 53.1187 61.1187C53.6808 60.5566 53.9976 59.7949 54 59V51C53.9976 50.2051 53.6808 49.4434 53.1187 48.8813C52.5566 48.3192 51.7949 48.0024 51 48V48ZM34 42H46C46.2652 42 46.5196 42.1054 46.7071 42.2929C46.8946 42.4804 47 42.7348 47 43C47 43.2652 46.8946 43.5196 46.7071 43.7071C46.5196 43.8946 46.2652 44 46 44H34C33.7348 44 33.4804 43.8946 33.2929 43.7071C33.1054 43.5196 33 43.2652 33 43C33 42.7348 33.1054 42.4804 33.2929 42.2929C33.4804 42.1054 33.7348 42 34 42ZM34 46H46C46.2652 46 46.5196 46.1054 46.7071 46.2929C46.8946 46.4804 47 46.7348 47 47C47 47.2652 46.8946 47.5196 46.7071 47.7071C46.5196 47.8946 46.2652 48 46 48H34C33.7348 48 33.4804 47.8946 33.2929 47.7071C33.1054 47.5196 33 47.2652 33 47C33 46.7348 33.1054 46.4804 33.2929 46.2929C33.4804 46.1054 33.7348 46 34 46ZM18 42H30C30.2652 42 30.5196 42.1054 30.7071 42.2929C30.8946 42.4804 31 42.7348 31 43C31 43.2652 30.8946 43.5196 30.7071 43.7071C30.5196 43.8946 30.2652 44 30 44H18C17.7348 44 17.4804 43.8946 17.2929 43.7071C17.1054 43.5196 17 43.2652 17 43C17 42.7348 17.1054 42.4804 17.2929 42.2929C17.4804 42.1054 17.7348 42 18 42ZM18 46H30C30.2652 46 30.5196 46.1054 30.7071 46.2929C30.8946 46.4804 31 46.7348 31 47C31 47.2652 30.8946 47.5196 30.7071 47.7071C30.5196 47.8946 30.2652 48 30 48H18C17.7348 48 17.4804 47.8946 17.2929 47.7071C17.1054 47.5196 17 47.2652 17 47C17 46.7348 17.1054 46.4804 17.2929 46.2929C17.4804 46.1054 17.7348 46 18 46ZM52 59C52 59.2652 51.8946 59.5196 51.7071 59.7071C51.5196 59.8946 51.2652 60 51 60H13C12.7348 60 12.4804 59.8946 12.2929 59.7071C12.1054 59.5196 12 59.2652 12 59V51C12 50.7348 12.1054 50.4804 12.2929 50.2929C12.4804 50.1054 12.7348 50 13 50H51C51.2652 50 51.5196 50.1054 51.7071 50.2929C51.8946 50.4804 52 50.7348 52 51V59Z" fill="black"/>
<path d="M50 54V56C49.9984 56.5299 49.7872 57.0377 49.4125 57.4125C49.0377 57.7872 48.5299 57.9984 48 58H16C15.4701 57.9984 14.9623 57.7872 14.5875 57.4125C14.2128 57.0377 14.0016 56.5299 14 56V54C14.0016 53.4701 14.2128 52.9623 14.5875 52.5875C14.9623 52.2128 15.4701 52.0016 16 52H20V54H16V56H48V54H22V52H48C48.5299 52.0016 49.0377 52.2128 49.4125 52.5875C49.7872 52.9623 49.9984 53.4701 50 54Z" fill="black"/>
<path d="M16 18H14V32H16V18Z" fill="black"/>
<path d="M21 16H18V18H21V16Z" fill="black"/>
</svg>
