<?xml version="1.0" encoding="UTF-8" standalone="no"?> <svg id="Layer_1" data-name="Layer 1" xmlns="http://www.w3.org/2000/svg" viewBox="0 0 512 512"><defs><style>.cls-1{fill:#bac2c6;}.cls-2{fill:#7b8c8c;}.cls-3{fill:#fd3730;}.cls-4{fill:#d3241f;}.cls-5{fill:#2d4a60;}.cls-6{fill:#263f52;}</style></defs><title>Costume</title><path class="cls-1" d="M448,106.69H64A10.666,10.666,0,0,1,53.333,96.025c0-5.89,4.776-10.665,8.2-10.665h384c8.359,0,13.135,4.775,13.135,10.665A10.666,10.666,0,0,1,448,106.69Z"/><path class="cls-2" d="M42.666,128.02a32,32,0,1,1,32-32A32.034,32.034,0,0,1,42.666,128.02Zm0-42.66A10.665,10.665,0,1,0,53.333,96.025,10.678,10.678,0,0,0,42.666,85.36Z"/><path class="cls-2" d="M469.333,128.02a32,32,0,1,1,32-32A32.034,32.034,0,0,1,469.333,128.02Zm0-42.66A10.665,10.665,0,1,0,480,96.025,10.678,10.678,0,0,0,469.333,85.36Z"/><path class="cls-3" d="M443.428,138.685,506,169.155a10.665,10.665,0,0,1,5.662,12.24l-8.425,32.819a10.678,10.678,0,0,1-4.93,6.544c-11.158,6.581-43.148,28.74-43.148,66.475l52.285,91.654a21.257,21.257,0,0,1-1.228,23.046c-14.3,19.622-49.322,56.7-109.724,56.7s-95.42-37.08-109.723-56.7a21.257,21.257,0,0,1-1.228-23.046l52.285-91.654c0-37.735-31.99-59.894-43.149-66.475a10.68,10.68,0,0,1-4.929-6.544L281.325,181.4a10.665,10.665,0,0,1,5.661-12.24l62.575-30.47Z"/><path class="cls-4" d="M458.788,265.9H334.2a64.247,64.247,0,0,1,3.627,21.33H455.161A64.247,64.247,0,0,1,458.788,265.9Z"/><path class="cls-4" d="M443.428,138.685c0,29.451-21.013,53.325-46.934,53.325s-46.933-23.874-46.933-53.325Z"/><path class="cls-2" d="M443.428,138.685l-.02-.064H407.161V85.3a32,32,0,0,0-64,0h21.333a10.667,10.667,0,0,1,21.334,0v53.325H349.561l-.013.008.013.056a59.389,59.389,0,0,0,3.891,21.266h86.085A59.389,59.389,0,0,0,443.428,138.685Z"/><path class="cls-5" d="M295.177,426.64V266.665l47.978,86.347a10.668,10.668,0,0,0,14.812,3.965l35.208-21.121a10.665,10.665,0,0,0,3.939-14.135L315.719,168a42.665,42.665,0,0,0-30.694-22.119l-43.181-7.2H156.511l-43.181,7.2A42.665,42.665,0,0,0,82.636,168L1.241,321.721A10.665,10.665,0,0,0,5.18,335.856l35.207,21.121A10.669,10.669,0,0,0,55.2,353.012l47.978-86.347V426.64a21.332,21.332,0,0,0,21.333,21.33H273.844A21.332,21.332,0,0,0,295.177,426.64Z"/><rect class="cls-6" x="188.511" y="277.33" width="21.333" height="170.64"/><path class="cls-6" d="M241.844,138.685l22.8,22.8a10.663,10.663,0,0,1-1.626,16.415L241.844,192.01,266.3,216.464a10.662,10.662,0,0,1,0,15.082L199.178,298.66l-67.125-67.114a10.664,10.664,0,0,1,0-15.082l24.458-24.454L135.337,177.9a10.663,10.663,0,0,1-1.626-16.415l22.8-22.8Z"/><polygon class="cls-5" points="156.511 138.685 199.178 297.891 241.844 138.685 156.511 138.685"/><path class="cls-2" d="M209.844,138.685V85.36a32,32,0,0,0-64,0h21.334a10.667,10.667,0,0,1,21.333,0v53.325h-32l5.716,21.33h73.9l5.716-21.33Z"/></svg>