<?xml version="1.0" encoding="UTF-8" standalone="no"?> <svg width="64" height="64" viewBox="0 0 64 64" fill="none" xmlns="http://www.w3.org/2000/svg">
<path d="M48.941 31.155L32.487 21.655L34.487 18.191C37.7946 18.3208 41.0209 19.2534 43.8875 20.9085C46.7541 22.5636 49.1749 24.8914 50.941 27.691V27.691L48.941 31.155Z" fill="#CC5144"/>
<path d="M42.775 20.435C41.8007 21.4782 40.565 22.2417 39.1961 22.6463C37.8272 23.0509 36.375 23.0819 34.9901 22.736C33.6052 22.3902 32.3381 21.6801 31.3202 20.6794C30.3023 19.6787 29.5706 18.4239 29.2011 17.0452C28.8316 15.6664 28.8378 14.2139 29.2189 12.8383C29.6001 11.4627 30.3423 10.2141 31.3687 9.22209C32.3951 8.23008 33.6682 7.53074 35.0559 7.19663C36.4437 6.86252 37.8956 6.9058 39.261 7.32199C38.8504 7.76707 38.4905 8.25641 38.188 8.78099C37.1272 10.6184 36.8397 12.802 37.3888 14.8514C37.9379 16.9008 39.2786 18.6481 41.116 19.709C41.6405 20.0116 42.1969 20.2551 42.775 20.435V20.435Z" fill="#F89C8D"/>
<path d="M44.853 21.636C44.437 23.0014 44.3938 24.4532 44.728 25.8409C45.0622 27.2285 45.7615 28.5015 46.7535 29.5278C47.7455 30.5541 48.994 31.2963 50.3696 31.6774C51.7451 32.0585 53.1975 32.0646 54.5762 31.6952C55.9549 31.3258 57.2097 30.5942 58.2104 29.5764C59.211 28.5585 59.9212 27.2915 60.2671 25.9067C60.613 24.5219 60.5822 23.0698 60.1777 21.701C59.7733 20.3321 59.01 19.0964 57.967 18.122C57.7867 18.7002 57.5429 19.2566 57.24 19.781C56.1791 21.6184 54.4318 22.9591 52.3824 23.5082C50.333 24.0573 48.1494 23.7698 46.312 22.709C45.7878 22.4059 45.2985 22.0461 44.853 21.636V21.636Z" fill="#F89C8D"/>
<path d="M23.678 15.192L19.058 14.532C18.4432 14.4441 17.8163 14.5005 17.2271 14.6969C16.6379 14.8932 16.1025 15.2241 15.6633 15.6633C15.2241 16.1025 14.8932 16.6379 14.6969 17.2271C14.5005 17.8163 14.4441 18.4432 14.532 19.058L15.192 23.678C14.542 24.3281 13.7703 24.8438 12.9209 25.1956C12.0716 25.5474 11.1613 25.7285 10.242 25.7285C9.32269 25.7285 8.41238 25.5474 7.56305 25.1956C6.71373 24.8438 5.94202 24.3281 5.292 23.678L3.879 22.263C3.31659 21.7004 3.00064 20.9375 3.00064 20.142C3.00064 19.3465 3.31659 18.5836 3.879 18.021L6 15.9C6.89668 15.0034 7.96118 14.2921 9.13273 13.8069C10.3043 13.3217 11.5599 13.072 12.828 13.072H13.071V12.829C13.071 11.5607 13.3208 10.3048 13.8062 9.13308C14.2916 7.96134 15.0031 6.89672 15.9 6V6L18.022 3.879C18.5846 3.31659 19.3475 3.00064 20.143 3.00064C20.9385 3.00064 21.7014 3.31659 22.264 3.879L23.679 5.293C24.9915 6.60587 25.7287 8.38631 25.7285 10.2427C25.7283 12.0991 24.9907 13.8794 23.678 15.192V15.192Z" fill="#F9E109"/>
<path d="M23.68 15.19L19.06 14.53C18.445 14.4438 17.8183 14.5016 17.2294 14.6987C16.6405 14.8959 16.1054 15.2271 15.6663 15.6662C15.2271 16.1054 14.8959 16.6405 14.6987 17.2294C14.5016 17.8183 14.4438 18.445 14.53 19.06L15.19 23.68C13.9056 24.9633 12.1728 25.6974 10.3574 25.7273C8.54192 25.7571 6.78591 25.0804 5.46 23.84C4.92857 23.2716 4.63881 22.5189 4.65187 21.7408C4.66493 20.9628 4.9798 20.2203 5.53 19.67L7.65 17.55C9.46326 15.7412 11.9188 14.7237 14.48 14.72H14.72V14.48C14.7211 11.9183 15.739 9.46176 17.55 7.64999L19.67 5.52999C20.2203 4.97978 20.9628 4.66491 21.7408 4.65185C22.5189 4.63879 23.2716 4.92856 23.84 5.45999C25.0804 6.78589 25.7572 8.5419 25.7273 10.3573C25.6975 12.1728 24.9634 13.9056 23.68 15.19V15.19Z" fill="#FCBC04"/>
<path d="M21.556 7.65701C23.765 7.65701 24.849 10.157 24.849 12.364C24.849 13.4249 24.4276 14.4423 23.6774 15.1924C22.9273 15.9426 21.9099 16.364 20.849 16.364C19.7881 16.364 18.7707 15.9426 18.0206 15.1924C17.2704 14.4423 16.849 13.4249 16.849 12.364C16.9801 11.1606 17.5182 10.0381 18.3742 9.18217C19.2301 8.32622 20.3526 7.78816 21.556 7.65701Z" fill="#84D2F4"/>
<path d="M12.364 16.849C13.4249 16.849 14.4423 17.2704 15.1924 18.0206C15.9426 18.7707 16.364 19.7881 16.364 20.849C16.364 21.9099 15.9426 22.9273 15.1924 23.6774C14.4423 24.4276 13.4249 24.849 12.364 24.849C10.155 24.849 7.657 23.765 7.657 21.556C7.78814 20.3526 8.32621 19.2301 9.18215 18.3742C10.0381 17.5182 11.1606 16.9801 12.364 16.849Z" fill="#84D2F4"/>
<path d="M24.85 12.36C24.85 13.4209 24.4286 14.4383 23.6784 15.1884C22.9283 15.9386 21.9109 16.36 20.85 16.36C19.7891 16.36 18.7717 15.9386 18.0216 15.1884C17.2714 14.4383 16.85 13.4209 16.85 12.36C16.8555 11.8694 16.9645 11.3855 17.17 10.94C17.4895 11.6824 18.0265 12.3106 18.7101 12.7418C19.3937 13.1731 20.1919 13.3871 20.9995 13.3557C21.8072 13.3243 22.5864 13.0489 23.2345 12.566C23.8825 12.083 24.3691 11.415 24.63 10.65C24.7774 11.208 24.8514 11.7828 24.85 12.36Z" fill="#57B7EB"/>
<path d="M16.36 20.85C16.36 21.9109 15.9386 22.9283 15.1884 23.6784C14.4383 24.4286 13.4209 24.85 12.36 24.85C10.15 24.85 7.66 23.77 7.66 21.56C7.66913 21.0031 7.80598 20.4557 8.06 19.96C8.84 21.23 10.68 21.85 12.36 21.85C13.1564 21.8527 13.9352 21.6157 14.595 21.1699C15.2549 20.724 15.7654 20.0899 16.06 19.35C16.2618 19.8241 16.364 20.3347 16.36 20.85V20.85Z" fill="#57B7EB"/>
<path d="M21.2595 47.2715C26.5062 38.184 28.4331 29.4739 25.5633 27.817C22.6936 26.1602 16.1139 32.184 10.8672 41.2715C5.62045 50.3591 3.69355 59.0692 6.56331 60.726C9.43306 62.3829 16.0128 56.3591 21.2595 47.2715Z" fill="#57B7EB"/>
<path d="M21.26 47.27C16.01 56.36 9.43 62.38 6.56 60.73C3.69 59.08 5.62 50.36 10.87 41.27C12.0496 39.2154 13.3589 37.238 14.79 35.35C15.0354 35.4519 15.2728 35.5722 15.5 35.71L18.653 37.531C19.0172 37.7379 19.3137 38.0459 19.5068 38.4176C19.6999 38.7894 19.7812 39.209 19.741 39.626V39.64C21.0136 37.9171 22.1888 36.1243 23.261 34.27C24.3569 32.3823 25.3419 30.4323 26.211 28.43C28.06 31.03 26.04 38.99 21.26 47.27Z" fill="#4891D3"/>
<path d="M17.831 37.209C17.8202 39.6644 17.1687 42.0745 15.9411 44.201C14.7134 46.3275 12.952 48.0968 10.831 49.334V49.334L6.501 46.834C5.70481 46.3744 5.00696 45.7624 4.4473 45.033C3.88764 44.3037 3.47714 43.4712 3.23923 42.5832C3.00132 41.6952 2.94067 40.769 3.06073 39.8575C3.1808 38.946 3.47924 38.0671 3.939 37.271V37.271C4.86728 35.6636 6.39601 34.4906 8.18898 34.0102C9.98195 33.5297 11.8923 33.7811 13.5 34.709L17.831 37.209Z" fill="#84D2F4"/>
<path d="M17.83 37.21C17.8207 39.665 17.1698 42.075 15.942 44.201C14.7141 46.3269 12.9519 48.095 10.83 49.33L6.5 46.83C5.43817 46.2236 4.55531 45.3476 3.94072 44.2905C3.32613 43.2334 3.00162 42.0327 3 40.81L5.38 42.18C7.09828 43.1782 9.12611 43.5025 11.07 43.09C12.3484 42.8209 13.5446 42.2519 14.56 41.43C15.5761 40.6097 16.3646 39.5423 16.85 38.33C17.0321 37.8654 17.189 37.3914 17.32 36.91L17.83 37.21Z" fill="#57B7EB"/>
<path d="M8.778 47.6H8.837C9.03108 47.6126 9.22533 47.5779 9.40301 47.4988C9.5807 47.4197 9.7365 47.2987 9.857 47.146L9.894 47.099C10.033 46.9247 10.2177 46.7925 10.4276 46.7173C10.6375 46.6421 10.8641 46.6269 11.0822 46.6733C11.3002 46.7197 11.501 46.8259 11.6621 46.9801C11.8232 47.1342 11.9381 47.3302 11.994 47.546L12.009 47.604C12.0569 47.7925 12.1499 47.9666 12.2801 48.1112C12.4102 48.2558 12.5735 48.3665 12.756 48.434L12.812 48.454C13.022 48.5316 13.206 48.6664 13.3434 48.8431C13.4808 49.0198 13.566 49.2315 13.5894 49.4541C13.6128 49.6767 13.5735 49.9014 13.4758 50.1029C13.3782 50.3043 13.2262 50.4744 13.037 50.594L12.986 50.626C12.8216 50.7299 12.6849 50.8722 12.5877 51.0406C12.4905 51.2091 12.4357 51.3987 12.428 51.593V51.652C12.4191 51.8757 12.3477 52.0924 12.2221 52.2777C12.0964 52.4629 11.9214 52.6094 11.7169 52.7004C11.5124 52.7914 11.2865 52.8234 11.0647 52.7928C10.8429 52.7621 10.6342 52.6701 10.462 52.527L10.417 52.489C10.2674 52.3647 10.0898 52.2787 9.89962 52.2383C9.70939 52.1979 9.51219 52.2043 9.325 52.257L9.267 52.273C9.05147 52.3335 8.82331 52.3325 8.60831 52.2702C8.3933 52.2078 8.20003 52.0866 8.05033 51.9201C7.90063 51.7537 7.80048 51.5487 7.76119 51.3283C7.7219 51.1079 7.74504 50.8809 7.828 50.673L7.85 50.618C7.92188 50.4373 7.94879 50.2419 7.92841 50.0486C7.90802 49.8552 7.84096 49.6697 7.733 49.508L7.7 49.458C7.5772 49.2717 7.50877 49.0548 7.50241 48.8318C7.49605 48.6088 7.552 48.3884 7.66397 48.1954C7.77595 48.0024 7.93952 47.8444 8.13631 47.7392C8.3331 47.6341 8.55532 47.5858 8.778 47.6V47.6Z" fill="#F9E109"/>
<path d="M13.04 50.6L12.99 50.63C12.8259 50.7352 12.6894 50.8781 12.592 51.0469C12.4946 51.2157 12.439 51.4053 12.43 51.6V51.65C12.4225 51.8749 12.352 52.0931 12.2265 52.2798C12.101 52.4664 11.9255 52.6141 11.7201 52.7058C11.5147 52.7976 11.2876 52.8298 11.0648 52.7987C10.842 52.7676 10.6324 52.6745 10.46 52.53L10.42 52.49C10.2704 52.3664 10.0931 52.2809 9.9033 52.2409C9.71346 52.2008 9.51674 52.2074 9.32999 52.26L9.26999 52.28C9.0544 52.3408 8.82611 52.34 8.61094 52.2777C8.39577 52.2155 8.20232 52.0943 8.05248 51.9278C7.90264 51.7613 7.80238 51.5562 7.76306 51.3357C7.72374 51.1151 7.74693 50.888 7.82999 50.68L7.84999 50.62C7.90132 50.5033 7.92853 50.3775 7.92999 50.25C8.19088 50.3794 8.49129 50.4044 8.76999 50.32L8.81999 50.31C9.00666 50.2566 9.20356 50.2496 9.39354 50.2897C9.58352 50.3298 9.76082 50.4157 9.90999 50.54L9.95999 50.58C10.1334 50.7214 10.3426 50.8118 10.5644 50.8412C10.7862 50.8707 11.0117 50.8379 11.216 50.7467C11.4203 50.6555 11.5952 50.5093 11.7212 50.3245C11.8473 50.1397 11.9196 49.9235 11.93 49.7V49.64C11.9374 49.445 11.9923 49.2547 12.0899 49.0857C12.1875 48.9166 12.3248 48.774 12.49 48.67L12.54 48.64C12.6261 48.5848 12.7065 48.5211 12.78 48.45L12.82 48.46C13.0296 48.5382 13.2133 48.6734 13.3501 48.8504C13.487 49.0274 13.5716 49.2391 13.5945 49.4617C13.6174 49.6843 13.5776 49.9088 13.4796 50.1099C13.3816 50.3111 13.2294 50.4808 13.04 50.6V50.6Z" fill="#FCBC04"/>
<path d="M61 48.912L59 52.376L56.879 52.248C54.1052 52.0816 51.3338 52.6123 48.8177 53.7917C46.3015 54.9711 44.1207 56.7616 42.474 59L37.274 56C38.3889 53.4547 38.8489 50.6707 38.6121 47.902C38.3752 45.1333 37.449 42.468 35.918 40.149L34.747 38.376L36.747 34.912L61 48.912Z" fill="#F89C8D"/>
<path d="M59.44 27.98C58.47 29.6535 56.9269 30.9193 55.096 31.5433C53.2651 32.1673 51.2702 32.1073 49.4801 31.3744C47.69 30.6415 46.2257 29.2853 45.358 27.5566C44.4903 25.8278 44.2779 23.8433 44.76 21.97C45.1577 23.508 46.0038 24.8929 47.1908 25.9486C48.3778 27.0043 49.852 27.6831 51.4258 27.8986C52.9997 28.1141 54.6021 27.8565 56.0292 27.1588C57.4563 26.461 58.6435 25.3545 59.44 23.98C59.8004 23.356 60.0761 22.6868 60.26 21.99C60.7825 24.017 60.4881 26.1681 59.44 27.98V27.98Z" fill="#F8664F"/>
<path d="M42.77 20.44C41.5552 21.7379 39.943 22.5945 38.1875 22.8748C36.4321 23.1552 34.6333 22.8433 33.0747 21.9883C31.5161 21.1334 30.2863 19.784 29.5794 18.153C28.8724 16.5219 28.7284 14.702 29.17 12.98C29.4482 14.05 29.9451 15.0507 30.6294 15.919C31.3137 16.7873 32.1705 17.5044 33.1458 18.0249C34.1212 18.5455 35.1938 18.8582 36.296 18.9434C37.3983 19.0286 38.5063 18.8845 39.55 18.52C40.023 18.979 40.5502 19.3786 41.12 19.71C41.6419 20.0125 42.1951 20.2573 42.77 20.44V20.44Z" fill="#F8664F"/>
<path d="M61 48.91L59 52.38L56.88 52.25C54.1055 52.0824 51.3332 52.6123 48.8161 53.7913C46.299 54.9704 44.1173 56.7611 42.47 59L37.28 56C38.3928 53.4541 38.8513 50.6704 38.6138 47.9022C38.3762 45.1339 37.4502 42.469 35.92 40.15L34.75 38.38L36.75 34.91L36.9 35C36.8917 35.0797 36.8883 35.1598 36.89 35.24C36.8865 36.2792 37.1929 37.2958 37.77 38.16L41.87 44.31C42.5987 45.4011 42.911 46.7178 42.75 48.02C42.74 48.13 42.73 48.23 42.73 48.34C42.7365 48.7831 42.8691 49.2151 43.1121 49.5857C43.3552 49.9562 43.6987 50.2499 44.1025 50.4324C44.5063 50.6149 44.9538 50.6787 45.3925 50.6163C45.8312 50.5539 46.2431 50.3679 46.58 50.08L47.16 49.58C47.7379 49.0819 48.4139 48.7107 49.1442 48.4902C49.8746 48.2697 50.643 48.2049 51.4 48.3L52.91 48.49C53.7451 48.5943 54.593 48.5041 55.3875 48.2266C56.182 47.949 56.9015 47.4916 57.49 46.89L61 48.91Z" fill="#F8664F"/>
<path d="M31.869 22.416C31.9054 22.4541 31.9449 22.4892 31.987 22.521L32.413 22.766H32.418L48.006 31.766H48.013L48.438 32.012C48.5251 32.06 48.6193 32.0937 48.717 32.112C50.7972 33.093 53.1765 33.2306 55.356 32.496C55.608 32.4122 55.8163 32.2317 55.9352 31.9943C56.0541 31.7569 56.0738 31.4819 55.99 31.23C55.9062 30.978 55.7257 30.7697 55.4883 30.6508C55.2509 30.5319 54.976 30.5122 54.724 30.596C52.9696 31.1819 51.0545 31.0488 49.398 30.226V30.226L49.379 30.217C49.255 30.155 49.129 30.098 49.008 30.028C47.8567 29.3693 46.9174 28.3957 46.3002 27.2217C45.6831 26.0476 45.4138 24.7218 45.524 23.4C45.619 23.46 45.716 23.518 45.812 23.573C46.8352 24.1646 47.965 24.5487 49.1368 24.7034C50.3086 24.8581 51.4993 24.7803 52.641 24.4744C53.7827 24.1686 54.8529 23.6407 55.7905 22.921C56.728 22.2013 57.5145 21.3039 58.105 20.28C58.162 20.18 58.216 20.08 58.269 19.986C59.1695 21.2889 59.6016 22.8587 59.4946 24.4389C59.3877 26.0191 58.7479 27.5164 57.68 28.686C57.5873 28.7824 57.5149 28.8964 57.467 29.0212C57.4192 29.1461 57.3968 29.2793 57.4014 29.413C57.4059 29.5466 57.4372 29.678 57.4934 29.7993C57.5496 29.9207 57.6295 30.0295 57.7285 30.1194C57.8275 30.2093 57.9435 30.2785 58.0697 30.3227C58.1959 30.367 58.3297 30.3855 58.4632 30.3772C58.5966 30.3688 58.7271 30.3338 58.8468 30.2742C58.9664 30.2145 59.073 30.1315 59.16 30.03C59.5937 29.554 59.9758 29.0334 60.3 28.477C61.2844 26.7855 61.6876 24.8181 61.4477 22.8758C61.2079 20.9335 60.3383 19.1232 58.972 17.722L58.992 16.746C58.998 16.489 59.0813 16.2397 59.2312 16.0308C59.3811 15.8219 59.5904 15.663 59.832 15.575C60.2736 15.4161 60.6759 15.164 61.0116 14.8358C61.3472 14.5077 61.6083 14.1112 61.7771 13.6733C61.9459 13.2353 62.0186 12.7662 61.9901 12.2977C61.9616 11.8291 61.8327 11.3723 61.612 10.958L60.057 8.03599C59.2308 6.48658 57.9867 5.19988 56.466 4.32199L53.925 2.85499C52.5935 2.09331 51.0329 1.83448 49.5268 2.1255C48.0207 2.41652 46.6689 3.23809 45.717 4.44099C45.3361 4.92524 44.8575 5.32386 44.3124 5.6109C43.7673 5.89794 43.1678 6.06697 42.553 6.10699L39.353 6.31399C37.2971 5.7346 35.1021 5.9059 33.1609 6.79723C31.2198 7.68856 29.6593 9.24171 28.7589 11.1786C27.8584 13.1155 27.6767 15.3097 28.2464 17.3683C28.8161 19.4269 30.0999 21.2156 31.868 22.414L31.869 22.416ZM38.322 23.869C40.0811 23.5926 41.7177 22.7973 43.022 21.585C43.261 21.716 43.496 21.852 43.729 21.993C43.3322 23.7269 43.4614 25.5398 44.1 27.2L38.322 23.869ZM39.053 9.28099C39.2587 8.93261 39.4928 8.60182 39.753 8.29199L42.682 8.09999C43.5773 8.04178 44.4503 7.79556 45.2441 7.37738C46.0379 6.95921 46.7347 6.37846 47.289 5.67299C47.8562 4.9555 48.6329 4.43261 49.5111 4.17704C50.3893 3.92146 51.3253 3.94591 52.189 4.24699L51.613 4.47199C51.0571 4.68933 50.5525 5.01983 50.1312 5.44252C49.7098 5.86521 49.3809 6.37086 49.1653 6.9274C48.9497 7.48393 48.8521 8.0792 48.8787 8.67545C48.9054 9.27169 49.0556 9.85589 49.32 10.391C49.3782 10.5087 49.4591 10.6138 49.558 10.7003C49.6568 10.7868 49.7717 10.8529 49.8962 10.895C50.0206 10.9371 50.1521 10.9542 50.2832 10.9455C50.4142 10.9367 50.5423 10.9022 50.66 10.844C50.7777 10.7857 50.8828 10.7049 50.9693 10.606C51.0558 10.5072 51.122 10.3922 51.164 10.2678C51.2061 10.1434 51.2232 10.0119 51.2145 9.88082C51.2057 9.74976 51.1712 9.62172 51.113 9.50399C50.9713 9.21744 50.8908 8.90456 50.8766 8.58523C50.8624 8.26591 50.9147 7.9471 51.0303 7.64909C51.1458 7.35107 51.3221 7.08034 51.548 6.85411C51.7738 6.62789 52.0442 6.4511 52.342 6.33499L53.349 5.94099L53.275 6.44099C53.1131 7.56535 53.1983 8.7115 53.5247 9.79956C53.8512 10.8876 54.4109 11.8914 55.165 12.741C55.341 12.9399 55.5887 13.0608 55.8538 13.077C56.1189 13.0932 56.3796 13.0035 56.5785 12.8275C56.7774 12.6515 56.8983 12.4037 56.9145 12.1387C56.9307 11.8736 56.841 11.6129 56.665 11.414C56.1037 10.7815 55.6872 10.0342 55.4446 9.22415C55.2019 8.41411 55.1389 7.56088 55.26 6.72399L55.366 5.98499L55.473 6.04699C56.6695 6.73799 57.6482 7.75066 58.298 8.96999L59.85 11.9C59.9356 12.0609 59.9857 12.2383 59.9967 12.4202C60.0078 12.6021 59.9796 12.7843 59.9141 12.9543C59.8485 13.1244 59.7472 13.2784 59.6169 13.4058C59.4866 13.5333 59.3305 13.6312 59.159 13.693C58.5379 13.9199 57.9996 14.3288 57.6145 14.8663C57.2293 15.4038 57.0152 16.0449 57 16.706L56.975 17.936C56.8218 18.4034 56.6207 18.8538 56.375 19.28C55.5019 20.7952 54.0927 21.9282 52.4253 22.4554C50.7579 22.9826 48.9535 22.8658 47.368 22.128C45.498 20.5694 43.375 19.3424 41.091 18.5C39.66 17.4956 38.6571 15.9916 38.2799 14.2845C37.9027 12.5774 38.1785 10.7909 39.053 9.27699V9.28099ZM30.853 11.481C31.4622 10.4147 32.3422 9.52823 33.4041 8.91134C34.466 8.29445 35.6719 7.96902 36.9 7.96799C37.1 7.96799 37.3 7.97599 37.492 7.99299C37.4333 8.08765 37.3753 8.18365 37.318 8.28099C36.7273 9.30487 36.3441 10.4351 36.1903 11.6071C36.0365 12.7791 36.115 13.9699 36.4215 15.1115C36.7279 16.2532 37.2562 17.3233 37.9763 18.2607C38.6963 19.1981 39.594 19.9845 40.618 20.575C40.718 20.63 40.818 20.685 40.912 20.737C39.8218 21.4953 38.5377 21.9265 37.2108 21.9796C35.8838 22.0327 34.5693 21.7057 33.422 21.037C33.328 20.982 33.242 20.92 33.151 20.862L33.056 20.798H33.046C31.5628 19.8154 30.5105 18.3038 30.1041 16.5717C29.6976 14.8396 29.9677 13.0177 30.859 11.478L30.853 11.481Z" fill="#39519D"/>
<path d="M4.584 24.389C6.02984 25.8344 7.97476 26.6704 10.0184 26.7251C12.0621 26.7798 14.0489 26.049 15.57 24.683C15.594 24.661 15.604 24.631 15.626 24.608C16.156 24.1563 16.5847 23.5977 16.8839 22.9689C17.1831 22.3401 17.3462 21.6552 17.3624 20.959C17.3787 20.2628 17.2477 19.571 16.9781 18.9289C16.7085 18.2868 16.3064 17.7089 15.798 17.233C16.0949 16.6028 16.6024 16.096 17.233 15.8C17.9191 16.5276 18.808 17.0321 19.7844 17.2482C20.7608 17.4642 21.7796 17.3818 22.7086 17.0116C23.6375 16.6414 24.4338 16.0005 24.994 15.1721C25.5542 14.3437 25.8524 13.366 25.85 12.366C25.85 9.53 24.375 6.659 21.557 6.659C20.0861 6.78609 18.7072 7.42818 17.6632 8.47216C16.6192 9.51615 15.9771 10.8951 15.85 12.366C15.8548 12.9519 15.9638 13.5323 16.172 14.08C15.2809 14.5532 14.5517 15.2821 14.078 16.173C13.5302 15.9652 12.9499 15.8561 12.364 15.851C10.8932 15.9785 9.51451 16.6207 8.4706 17.6646C7.42669 18.7085 6.78448 20.0872 6.657 21.558C6.65221 22.0401 6.74357 22.5184 6.92574 22.9648C7.10792 23.4112 7.37725 23.8169 7.718 24.158C7.08055 23.8676 6.49905 23.4675 6 22.976L4.587 21.553C4.21267 21.178 4.00243 20.6698 4.00243 20.14C4.00243 19.6102 4.21267 19.102 4.587 18.727L6.707 16.607C7.51274 15.8051 8.46725 15.1682 9.517 14.732C10.5662 14.2928 11.6926 14.0677 12.83 14.07H13.07C13.3352 14.07 13.5896 13.9646 13.7771 13.7771C13.9646 13.5896 14.07 13.3352 14.07 13.07V12.83C14.0768 10.5346 14.9884 8.33454 16.607 6.707L18.727 4.587C19.102 4.21266 19.6102 4.00242 20.14 4.00242C20.6698 4.00242 21.178 4.21266 21.553 4.587C21.7416 4.76915 21.9942 4.86995 22.2564 4.86767C22.5186 4.86539 22.7694 4.76022 22.9548 4.57481C23.1402 4.38941 23.2454 4.13859 23.2477 3.8764C23.25 3.6142 23.1492 3.3616 22.967 3.173C22.2169 2.42342 21.1999 2.00235 20.1395 2.00235C19.0791 2.00235 18.0621 2.42342 17.312 3.173L15.193 5.293C13.3789 7.11547 12.279 9.52831 12.093 12.093C10.9406 12.1697 9.80892 12.437 8.744 12.884C7.45111 13.417 6.27678 14.2011 5.289 15.191L3.169 17.311C2.42064 18.0609 2.00035 19.0771 2.00035 20.1365C2.00035 21.1959 2.42064 22.2121 3.169 22.962L4.584 24.389ZM21.557 8.657C23.228 8.657 23.85 10.931 23.85 12.364C23.85 13.1596 23.5339 13.9227 22.9713 14.4853C22.4087 15.0479 21.6456 15.364 20.85 15.364C20.0544 15.364 19.2913 15.0479 18.7287 14.4853C18.1661 13.9227 17.85 13.1596 17.85 12.364C17.9785 11.4262 18.4105 10.5562 19.0798 9.88681C19.7492 9.21746 20.6192 8.78555 21.557 8.657V8.657ZM12.364 17.849C13.1596 17.849 13.9227 18.1651 14.4853 18.7277C15.0479 19.2903 15.364 20.0533 15.364 20.849C15.364 21.6446 15.0479 22.4077 14.4853 22.9703C13.9227 23.5329 13.1596 23.849 12.364 23.849C10.931 23.849 8.657 23.227 8.657 21.556C8.78555 20.6182 9.21747 19.7482 9.88682 19.0788C10.5562 18.4095 11.4262 17.9775 12.364 17.849V17.849Z" fill="#39519D"/>
<path d="M26.063 26.951C23.474 25.458 19.177 28.141 14.483 34.121L14 33.843C13.0901 33.3177 12.0857 32.9768 11.0441 32.8397C10.0025 32.7026 8.94404 32.7719 7.92924 33.0439C6.91443 33.3158 5.96312 33.785 5.12963 34.4246C4.29614 35.0641 3.59679 35.8616 3.0715 36.7715C2.54621 37.6814 2.20528 38.6858 2.06816 39.7274C1.93105 40.769 2.00045 41.8275 2.27238 42.8423C2.54432 43.8571 3.01347 44.8084 3.65306 45.6419C4.29264 46.4754 5.09013 47.1747 6 47.7L6.642 48.071C6.52379 48.4011 6.48571 48.7546 6.53092 49.1023C6.57612 49.4501 6.70331 49.7821 6.902 50.071C6.92277 50.1078 6.93368 50.1493 6.93368 50.1915C6.93368 50.2337 6.92277 50.2752 6.902 50.312C6.74841 50.693 6.70531 51.1095 6.77765 51.5138C6.85 51.9182 7.03484 52.2939 7.311 52.598C7.59303 52.9093 7.9579 53.1339 8.3629 53.2455C8.76791 53.3571 9.19631 53.351 9.598 53.228C9.63918 53.2195 9.68187 53.222 9.72175 53.2354C9.76162 53.2487 9.79725 53.2724 9.825 53.304C10.1445 53.5702 10.533 53.7404 10.9453 53.7948C11.3576 53.8492 11.7769 53.7857 12.1545 53.6115C12.5322 53.4373 12.8527 53.1597 13.079 52.8107C13.3053 52.4618 13.428 52.0559 13.433 51.64C13.433 51.574 13.47 51.514 13.576 51.447C13.924 51.2293 14.2036 50.918 14.3828 50.5487C14.562 50.1794 14.6334 49.7671 14.589 49.359C14.5445 48.9401 14.3813 48.5426 14.1186 48.2133C13.8558 47.8839 13.5046 47.6365 13.106 47.5C13.045 47.477 12.998 47.425 12.967 47.3C12.8675 46.9014 12.6577 46.5389 12.3616 46.2542C12.0655 45.9694 11.6952 45.7739 11.293 45.69C11.221 45.675 11.15 45.683 11.079 45.675C13.4001 43.2797 14.8689 40.1875 15.259 36.875L16.815 37.775C16.682 40.4275 15.7514 42.9781 14.145 45.093C14.0606 45.1969 13.9978 45.3167 13.9606 45.4453C13.9233 45.5739 13.9122 45.7086 13.928 45.8416C13.9438 45.9745 13.9861 46.103 14.0524 46.2193C14.1188 46.3356 14.2078 46.4373 14.3142 46.5186C14.4207 46.5998 14.5423 46.6589 14.672 46.6922C14.8016 46.7255 14.9367 46.7325 15.0691 46.7127C15.2015 46.6929 15.3286 46.6466 15.4428 46.5768C15.557 46.5069 15.656 46.4148 15.734 46.306C17.7236 43.6893 18.8113 40.4981 18.834 37.211C18.8347 37.0348 18.7888 36.8615 18.701 36.7087C18.6132 36.556 18.4866 36.4291 18.334 36.341L16.234 35.129C20.334 29.986 23.8 27.946 25.065 28.681C25.799 29.104 26.294 30.866 25.481 34.54C24.3917 38.8426 22.6785 42.9626 20.396 46.769C18.24 50.65 15.5276 54.1946 12.345 57.29C9.569 59.831 7.794 60.282 7.063 59.859C6.363 59.459 5.872 57.806 6.573 54.375C6.60281 54.245 6.60633 54.1104 6.58335 53.9791C6.56037 53.8477 6.51134 53.7223 6.43917 53.6101C6.36699 53.498 6.27312 53.4015 6.16307 53.3262C6.05302 53.2508 5.92903 53.1983 5.79837 53.1716C5.66772 53.1449 5.53305 53.1447 5.40229 53.1708C5.27153 53.197 5.14732 53.249 5.03696 53.3238C4.92661 53.3987 4.83234 53.4949 4.7597 53.6067C4.68706 53.7185 4.63752 53.8437 4.614 53.975C3.803 57.943 4.305 60.575 6.063 61.592C6.54717 61.8673 7.09611 62.0081 7.653 62C9.301 62 11.353 60.907 13.695 58.762C17.0276 55.5292 19.8682 51.8251 22.126 47.768C24.511 43.7837 26.2986 39.4711 27.432 34.968C28.36 30.777 27.887 28 26.063 26.951ZM12.469 49.4C12.5049 49.4116 12.5365 49.4337 12.5597 49.4635C12.5829 49.4933 12.5966 49.5293 12.599 49.567C12.607 49.649 12.576 49.713 12.456 49.788C12.1477 49.9858 11.8929 50.2565 11.7141 50.5762C11.5353 50.8959 11.4381 51.2548 11.431 51.621C11.431 51.6586 11.4196 51.6953 11.3984 51.7264C11.3771 51.7574 11.347 51.7813 11.312 51.795C11.236 51.832 11.165 51.818 11.059 51.728C10.6654 51.4023 10.1699 51.2253 9.659 51.228C9.43648 51.2262 9.21476 51.2548 9 51.313C8.96468 51.3244 8.92676 51.325 8.89112 51.3146C8.85548 51.3043 8.82375 51.2835 8.8 51.255C8.745 51.194 8.733 51.124 8.784 50.993C8.91779 50.6517 8.96525 50.2826 8.92216 49.9185C8.87907 49.5545 8.74677 49.2067 8.537 48.906C8.51493 48.8757 8.50246 48.8395 8.50121 48.8021C8.49997 48.7646 8.50999 48.7277 8.53 48.696C8.54679 48.6676 8.5701 48.6436 8.598 48.626L8.612 48.615C8.64286 48.5994 8.67762 48.5931 8.712 48.597V48.534C8.73 48.519 8.751 48.508 8.768 48.492V48.6C9.13348 48.6192 9.49815 48.5493 9.83055 48.3961C10.163 48.243 10.4531 48.0113 10.676 47.721C10.698 47.69 10.729 47.6665 10.7647 47.6535C10.8004 47.6404 10.8392 47.6385 10.876 47.648C10.956 47.666 11.008 47.715 11.043 47.848C11.134 48.2044 11.3118 48.5326 11.5607 48.8035C11.8095 49.0743 12.1216 49.2793 12.469 49.4V49.4ZM7.346 46.166L7 45.967C5.63316 45.1657 4.63875 43.8563 4.23377 42.3245C3.8288 40.7927 4.04613 39.163 4.83835 37.7908C5.63057 36.4187 6.93336 35.4156 8.46241 35.0005C9.99146 34.5854 11.6226 34.7919 13 35.575L13.345 35.775C13.2401 37.8585 12.6414 39.8872 11.5984 41.6938C10.5554 43.5005 9.09785 45.0333 7.346 46.166V46.166Z" fill="#39519D"/>
<path d="M61.5 48.045L37.251 34.045C37.1571 33.9956 37.0558 33.9618 36.951 33.945L36.031 32.776C35.5073 32.1116 35.1348 31.341 34.9395 30.5178C34.7441 29.6947 34.7307 28.8389 34.9 28.01C34.9298 27.88 34.9333 27.7454 34.9104 27.6141C34.8874 27.4827 34.8384 27.3573 34.7662 27.2451C34.694 27.133 34.6001 27.0365 34.4901 26.9611C34.38 26.8858 34.256 26.8333 34.1254 26.8066C33.9947 26.7799 33.8601 26.7797 33.7293 26.8058C33.5985 26.8319 33.4743 26.884 33.364 26.9588C33.2536 27.0337 33.1593 27.1299 33.0867 27.2417C33.0141 27.3535 32.9645 27.4787 32.941 27.61C32.7124 28.7228 32.7296 29.8721 32.9915 30.9776C33.2533 32.0831 33.7535 33.118 34.457 34.01L34.77 34.41L33.701 34.572C33.3851 34.6208 33.0624 34.6033 32.7536 34.5205C32.4448 34.4376 32.1567 34.2913 31.9076 34.0909C31.6586 33.8905 31.454 33.6403 31.307 33.3564C31.1601 33.0725 31.0739 32.7611 31.054 32.442C31.037 32.1768 30.9154 31.9292 30.7159 31.7536C30.5163 31.5781 30.2552 31.489 29.99 31.506C29.7248 31.523 29.4772 31.6446 29.3016 31.8441C29.1261 32.0437 29.037 32.3048 29.054 32.57C29.123 33.6628 29.6063 34.6881 30.4054 35.4368C31.2044 36.1855 32.259 36.6012 33.354 36.599C33.5703 36.5991 33.7862 36.5828 34 36.55L34.708 36.442L33.881 37.875C33.7881 38.0358 33.7417 38.2193 33.7472 38.4049C33.7527 38.5905 33.8098 38.771 33.912 38.926L35.087 40.7C36.5312 42.8778 37.4048 45.3836 37.6274 47.9872C37.85 50.5909 37.4146 53.2087 36.361 55.6C36.2623 55.8254 36.2502 56.0792 36.327 56.313C36.4037 56.5467 36.5639 56.744 36.777 56.867L41.977 59.867C42.19 59.9899 42.4409 60.0301 42.6816 59.9797C42.9224 59.9294 43.1361 59.792 43.282 59.594C44.8251 57.485 46.8741 55.7983 49.2404 54.6893C51.6066 53.5803 54.2139 53.0846 56.822 53.248L58.943 53.375C59.2082 53.3909 59.4689 53.3008 59.6677 53.1245C59.8665 52.9482 59.9871 52.7002 60.003 52.435C60.0189 52.1698 59.9288 51.9091 59.7525 51.7103C59.5763 51.5115 59.3282 51.3909 59.063 51.375L56.941 51.248C54.1507 51.0753 51.3594 51.5706 48.7989 52.6927C46.2383 53.8148 43.9823 55.5314 42.218 57.7L38.533 55.57C39.5278 52.9586 39.8856 50.1476 39.5767 47.3702C39.2679 44.5928 38.3012 41.9291 36.757 39.6L35.926 38.342L37.117 36.28L60.5 49.778C60.6138 49.8437 60.7394 49.8863 60.8697 49.9034C60.9999 49.9205 61.1323 49.9118 61.2592 49.8778C61.3861 49.8437 61.505 49.785 61.6092 49.705C61.7134 49.625 61.8008 49.5253 61.8665 49.4115C61.9322 49.2977 61.9748 49.1721 61.9919 49.0418C62.009 48.9116 62.0003 48.7792 61.9663 48.6523C61.9322 48.5255 61.8735 48.4065 61.7935 48.3023C61.7135 48.1981 61.6138 48.1107 61.5 48.045V48.045Z" fill="#39519D"/>
<path d="M41.313 41.009C41.1992 40.9433 41.0736 40.9007 40.9433 40.8836C40.8131 40.8665 40.6807 40.8752 40.5538 40.9092C40.427 40.9432 40.308 41.0019 40.2038 41.0819C40.0996 41.1619 40.0122 41.2617 39.9465 41.3755C39.8808 41.4893 39.8382 41.6149 39.8211 41.7451C39.804 41.8754 39.8127 42.0077 39.8467 42.1346C39.8808 42.2615 39.9395 42.3805 40.0195 42.4847C40.0995 42.5889 40.1992 42.6763 40.313 42.742L52.437 49.742C52.5508 49.8076 52.6764 49.8502 52.8067 49.8674C52.9369 49.8845 53.0693 49.8758 53.1962 49.8417C53.323 49.8077 53.442 49.749 53.5462 49.669C53.6504 49.589 53.7378 49.4893 53.8035 49.3755C53.8692 49.2617 53.9118 49.1361 53.9289 49.0058C53.946 48.8756 53.9373 48.7432 53.9033 48.6163C53.8692 48.4894 53.8105 48.3705 53.7305 48.2663C53.6505 48.1621 53.5508 48.0746 53.437 48.009L41.313 41.009Z" fill="#39519D"/>
</svg>
