<?xml version="1.0" encoding="UTF-8" standalone="no"?> <svg width="64" height="64" viewBox="0 0 64 64" fill="none" xmlns="http://www.w3.org/2000/svg">
<path d="M46.38 6.40991H40C39.9258 8.53382 39.0299 10.546 37.5012 12.0222C35.9724 13.4985 33.9302 14.3236 31.805 14.3236C29.6798 14.3236 27.6376 13.4985 26.1089 12.0222C24.5801 10.546 23.6842 8.53382 23.61 6.40991H18L3.76001 20.0999L12.38 27.9999L17.8 22.8999L17.86 52.8099H43.46L39.11 37.2499L46.72 38.8599V23.0999L52.08 28.2099L59.82 19.8499L46.38 6.40991Z" fill="#78B9EB"/>
<path d="M54.5001 46.4899L60.1301 43.2199C60.3006 43.1201 60.4378 42.972 60.5242 42.7943C60.6107 42.6166 60.6425 42.4173 60.6158 42.2215C60.589 42.0257 60.5049 41.8422 60.3739 41.6942C60.243 41.5462 60.0711 41.4404 59.8801 41.3899L47.2901 37.9999V24.9999L51.1801 28.8899C51.273 28.9837 51.3836 29.0581 51.5055 29.1088C51.6273 29.1596 51.758 29.1857 51.8901 29.1857C52.0221 29.1857 52.1528 29.1596 52.2746 29.1088C52.3965 29.0581 52.5071 28.9837 52.6001 28.8899L60.7101 20.7699C60.8963 20.5826 61.0009 20.3291 61.0009 20.0649C61.0009 19.8008 60.8963 19.5473 60.7101 19.3599L47.0001 5.61995C46.9074 5.52546 46.797 5.45029 46.6751 5.39879C46.5532 5.34729 46.4224 5.3205 46.2901 5.31995H40.0701C39.8048 5.31995 39.5505 5.4253 39.363 5.61284C39.1754 5.80038 39.0701 6.05473 39.0701 6.31995C39.0701 8.19503 38.3252 9.99331 36.9993 11.3192C35.6734 12.6451 33.8751 13.3899 32.0001 13.3899C30.125 13.3899 28.3267 12.6451 27.0008 11.3192C25.6749 9.99331 24.9301 8.19503 24.9301 6.31995C24.9301 6.05473 24.8247 5.80038 24.6372 5.61284C24.4496 5.4253 24.1953 5.31995 23.9301 5.31995H17.7101C17.5778 5.3205 17.4469 5.34729 17.325 5.39879C17.2031 5.45029 17.0927 5.52546 17.0001 5.61995L3.29006 19.3199C3.10381 19.5073 2.99927 19.7608 2.99927 20.0249C2.99927 20.2891 3.10381 20.5426 3.29006 20.7299L11.4001 28.8499C11.493 28.9437 11.6036 29.0181 11.7255 29.0688C11.8473 29.1196 11.978 29.1457 12.1101 29.1457C12.2421 29.1457 12.3728 29.1196 12.4946 29.0688C12.6165 29.0181 12.7271 28.9437 12.8201 28.8499L16.7101 24.9999V52.9999C16.7101 53.2652 16.8154 53.5195 17.003 53.7071C17.1905 53.8946 17.4448 53.9999 17.7101 53.9999H42.7101L43.7101 57.5399C43.7617 57.7304 43.8686 57.9013 44.0172 58.0311C44.1658 58.1609 44.3495 58.2439 44.5451 58.2695C44.7408 58.2952 44.9396 58.2624 45.1167 58.1753C45.2937 58.0882 45.441 57.9506 45.5401 57.7799L48.8101 52.1499L54.1401 57.4799C54.5137 57.8529 54.9571 58.1486 55.445 58.3502C55.9329 58.5518 56.4557 58.6553 56.9836 58.6549C57.5115 58.6544 58.0341 58.5499 58.5217 58.3475C59.0092 58.1451 59.4521 57.8486 59.8251 57.4749C60.198 57.1013 60.4937 56.6579 60.6953 56.17C60.8969 55.6821 61.0004 55.1593 61 54.6314C60.9995 54.1035 60.8951 53.5809 60.6926 53.0933C60.4902 52.6058 60.1937 52.1629 59.8201 51.7899L54.5001 46.4899ZM18.7101 51.9999V22.5399C18.7092 22.3422 18.6498 22.1491 18.5392 21.9851C18.4286 21.8211 18.2719 21.6936 18.0889 21.6187C17.9059 21.5438 17.7047 21.5248 17.5109 21.5642C17.3171 21.6036 17.1393 21.6995 17.0001 21.8399L12.1101 26.7299L5.41006 19.9999L18.1201 7.31995H23.0001C23.2914 9.50041 24.3645 11.5009 26.0198 12.9498C27.6752 14.3987 29.8002 15.1973 32.0001 15.1973C34.1999 15.1973 36.3249 14.3987 37.9803 12.9498C39.6356 11.5009 40.7087 9.50041 41.0001 7.31995H45.8601L58.5901 19.9999L51.8901 26.7099L47.0001 21.8399C46.8606 21.6995 46.6825 21.6036 46.4885 21.5645C46.2944 21.5253 46.0931 21.5446 45.9101 21.6199C45.7274 21.695 45.5711 21.8224 45.4608 21.9861C45.3504 22.1498 45.291 22.3425 45.2901 22.5399V37.4799L39.4701 35.9199C39.2996 35.8729 39.1198 35.8719 38.9488 35.917C38.7779 35.9621 38.6219 36.0518 38.4969 36.1768C38.3719 36.3018 38.2823 36.4578 38.2371 36.6287C38.192 36.7997 38.193 36.9795 38.2401 37.1499L42.2401 52.0199L18.7101 51.9999ZM58.4101 56.0599C58.0261 56.4302 57.5135 56.6371 56.9801 56.6371C56.4466 56.6371 55.934 56.4302 55.5501 56.0599L49.3101 49.8199C49.2014 49.7122 49.0695 49.6309 48.9244 49.5821C48.7794 49.5334 48.6251 49.5186 48.4734 49.5389C48.3218 49.5592 48.1768 49.614 48.0496 49.6992C47.9225 49.7843 47.8166 49.8974 47.7401 50.0299L45.0001 54.7199L40.6201 38.2999L57.0001 42.6999L52.3301 45.4099C52.1969 45.4873 52.0835 45.5943 51.9985 45.7226C51.9135 45.851 51.8593 45.9972 51.8401 46.1499C51.8207 46.3005 51.8358 46.4534 51.8843 46.5972C51.9329 46.741 52.0135 46.8719 52.1201 46.9799L58.3701 53.2299C58.5657 53.4138 58.7223 53.6352 58.8305 53.8809C58.9387 54.1265 58.9964 54.3915 59.0001 54.6599C59.0003 54.9239 58.9482 55.1852 58.847 55.4289C58.7457 55.6726 58.5972 55.8939 58.4101 56.0799V56.0599Z" fill="#006DF0"/>
</svg>
