<?xml version="1.0" encoding="UTF-8"?>
<svg xmlns="http://www.w3.org/2000/svg" xmlns:xlink="http://www.w3.org/1999/xlink" width="54px" height="59px" viewBox="0 0 54 59" version="1.1">
    <!-- Generator: Sketch 52.6 (67491) - http://www.bohemiancoding.com/sketch -->
    <title>059 - Money Bag</title>
    <desc>Created with Sketch.</desc>
    <g id="Page-1" stroke="none" stroke-width="1" fill="none" fill-rule="evenodd">
        <g id="059---Money-Bag">
            <path d="M54,48.2 C54,54.167 54,59 27,59 C0,59 0,54.167 0,48.2 C0,31.776 12.088,13 27,13 C41.912,13 54,31.776 54,48.2 Z" id="Path" fill="#F0C419"/>
            <path d="M47.833,5.883 C47.6718566,5.15698032 47.3931865,4.46216283 47.008,3.826 C44.514,-0.277 38,-1.157 32.489,1.863 C30.0312798,3.13798204 28.0915021,5.22547822 27,7.77 C25.9088394,5.22583005 23.969378,3.13864725 21.512,1.864 C16,-1.159 9.486,-0.278 6.991,3.828 C6.60603811,4.46380587 6.32769487,5.15831279 6.167,5.884 C5.74850172,7.81261729 6.23226188,9.826812 7.481,11.355 C8.82526157,13.0186118 10.8461828,13.9897849 12.985,14 L23.809,14 C21.637,15.972 19,19.66 19,26 C19,26.5522847 19.4477153,27 20,27 C20.5522847,27 21,26.5522847 21,26 C21,18.058 25.6,14.9 27,14.121 C28.4,14.899 33,18.055 33,26 C33,26.5522847 33.4477153,27 34,27 C34.5522847,27 35,26.5522847 35,26 C35,19.66 32.363,15.972 30.191,14 L41.015,14 C43.1524135,13.9885858 45.1716229,13.0175296 46.515,11.355 C47.7653157,9.82718578 48.2505673,7.81254479 47.833,5.883 Z M9.041,10.1 C8.16465775,9.04773751 7.82461114,7.64915276 8.12,6.312 C8.23343389,5.80135868 8.42933524,5.31261859 8.7,4.865 C9.827,3.012 12.08,2.044 14.668,2.044 C16.7294735,2.07153025 18.751517,2.61287287 20.551,3.619 C23.7407358,5.22554301 25.8119373,8.43181184 25.965,12 L12.985,12 C11.4517082,11.9911074 10.0036153,11.2934968 9.041,10.1 Z M44.959,10.1 C43.9963847,11.2934968 42.5482918,11.9911074 41.015,12 L28.035,12 C28.1881272,8.43158131 30.2592553,5.22504348 33.449,3.618 C38.038,1.1 43.352,1.663 45.3,4.863 C45.5716568,5.31213653 45.7682376,5.80257523 45.882,6.315 C46.1757072,7.65150926 45.834985,9.04872877 44.959,10.1 Z" id="Shape" fill="#B19046" fill-rule="nonzero"/>
            <circle id="Oval" fill="#F3D55B" cx="27" cy="41" r="11"/>
            <path d="M27,53 C20.372583,53 15,47.627417 15,41 C15,34.372583 20.372583,29 27,29 C33.627417,29 39,34.372583 39,41 C38.9928352,47.624447 33.624447,52.9928352 27,53 Z M27,31 C21.4771525,31 17,35.4771525 17,41 C17,46.5228475 21.4771525,51 27,51 C32.5228475,51 37,46.5228475 37,41 C36.9939376,35.4796656 32.5203344,31.0060624 27,31 Z" id="Shape" fill="#F9EAB0" fill-rule="nonzero"/>
            <path d="M27,40 C25.374,40 24,39.084 24,38 C24,37.144 24.863,36.4 26.025,36.122 C26.0757413,36.6223891 26.4970448,37.0031314 27,37.0031314 C27.5029552,37.0031314 27.9242587,36.6223891 27.975,36.122 C29.137,36.4 30,37.144 30,38 C30,38.5522847 30.4477153,39 31,39 C31.5522847,39 32,38.5522847 32,38 C32,36.068 30.279,34.453 28,34.081 L28,34 C28,33.4477153 27.5522847,33 27,33 C26.4477153,33 26,33.4477153 26,34 L26,34.081 C23.721,34.453 22,36.068 22,38 C22,40.206 24.243,42 27,42 C28.626,42 30,42.916 30,44 C30,44.856 29.137,45.6 27.975,45.878 C27.9242587,45.3776109 27.5029552,44.9968686 27,44.9968686 C26.4970448,44.9968686 26.0757413,45.3776109 26.025,45.878 C24.863,45.6 24,44.856 24,44 C24,43.4477153 23.5522847,43 23,43 C22.4477153,43 22,43.4477153 22,44 C22,45.932 23.721,47.547 26,47.919 L26,48 C26,48.5522847 26.4477153,49 27,49 C27.5522847,49 28,48.5522847 28,48 L28,47.919 C30.279,47.547 32,45.932 32,44 C32,41.794 29.757,40 27,40 Z" id="Path" fill="#B19046"/>
        </g>
    </g>
</svg>
