<?xml version="1.0" encoding="UTF-8" standalone="no"?> <svg width="64" height="64" viewBox="0 0 64 64" fill="none" xmlns="http://www.w3.org/2000/svg">
<path d="M51 59L40 61L36.69 44.85L32 22L26.73 47.65L23.98 61L13 59L13.94 47.25L14.52 40.01L14.68 38.03L14.84 35.97L15 34L16.3 17.79L17 9H47L47.7 17.79L49.11 35.43L51 59Z" fill="#0071BC"/>
<path d="M49.1095 35.43C45.7928 39.5289 41.5308 42.7614 36.6895 44.85L31.9995 22L26.7295 47.65C24.9959 47.8837 23.2487 48.0006 21.4995 48C18.9608 48.0016 16.4283 47.7504 13.9395 47.25L14.5195 40.01L14.6795 38.03L14.8395 35.97L14.9995 34L16.2995 17.79L16.9995 9H46.9995L47.6995 17.79L49.1095 35.43Z" fill="#0684C9"/>
<path d="M47 3H17V9H47V3Z" fill="#8C6239"/>
<path d="M47.7 17.79C47.1445 17.9317 46.5733 18.0023 46 18C44.1435 18 42.363 17.2625 41.0503 15.9497C39.7375 14.637 39 12.8565 39 11C38.9981 10.3227 39.0958 9.64885 39.29 9H47L47.7 17.79Z" fill="#025E91"/>
<path d="M25.0008 11C25.0027 11.6773 24.905 12.3512 24.7108 13C24.3787 14.1145 23.7742 15.1288 22.9519 15.9511C22.1296 16.7735 21.1153 17.378 20.0008 17.71C19.3519 17.9042 18.6781 18.0019 18.0008 18C17.4275 18.0023 16.8563 17.9317 16.3008 17.79L17.0008 9H24.7108C24.905 9.64885 25.0027 10.3227 25.0008 11V11Z" fill="#025E91"/>
<path d="M24.71 13C24.378 14.1145 23.7735 15.1288 22.9511 15.9511C22.1288 16.7735 21.1145 17.378 20 17.71V13H24.71Z" fill="#A8131E"/>
<path d="M28 9H32V22H31.258C30.3939 22 29.5652 21.6567 28.9542 21.0458C28.3433 20.4348 28 19.6061 28 18.742V9Z" fill="#025E91"/>
<path d="M23 3H21V9H23V3Z" fill="#0071BC"/>
<path d="M28 3H26V9H28V3Z" fill="#0071BC"/>
<path d="M43 3H41V9H43V3Z" fill="#0071BC"/>
<path d="M38 3H36V9H38V3Z" fill="#0071BC"/>
<path d="M35 5H33V7H35V5Z" fill="#CCCCCC"/>
<path d="M12.8203 59.984L23.8013 61.984C24.0582 62.028 24.3221 61.9709 24.5379 61.8248C24.7537 61.6787 24.9047 61.4548 24.9593 61.2L31.9993 26.971L39.0203 61.2C39.0728 61.4559 39.2233 61.6811 39.4397 61.8274C39.6561 61.9738 39.9212 62.0296 40.1783 61.983L51.1783 59.983C51.4226 59.9393 51.642 59.8063 51.7938 59.6099C51.9455 59.4134 52.0188 59.1675 51.9993 58.92L47.9993 8.957V3C47.9993 2.73478 47.8939 2.48043 47.7064 2.29289C47.5188 2.10536 47.2645 2 46.9993 2H16.9993C16.7341 2 16.4797 2.10536 16.2922 2.29289C16.1046 2.48043 15.9993 2.73478 15.9993 3V8.957L14.0043 33.923L15.9983 34.083L17.2143 18.867C17.3913 18.867 17.5773 18.875 17.7693 18.875C18.6123 18.8982 19.4553 18.8291 20.2833 18.669C21.9356 18.178 23.3849 17.1659 24.415 15.7838C25.4451 14.4018 26.0008 12.7237 25.9993 11C25.996 10.6655 25.9719 10.3315 25.9273 10H26.9993V18.742C27.0026 19.7859 27.39 20.7921 28.0878 21.5686C28.7855 22.3451 29.7446 22.8375 30.7823 22.952L23.1993 59.841L14.0703 58.178L15.5203 40.085L13.5203 39.925L11.9993 58.92C11.9795 59.1676 12.0526 59.4138 12.2044 59.6105C12.3562 59.8072 12.5757 59.9403 12.8203 59.984V59.984ZM17.9993 4H20.9993V8H17.9993V4ZM20.9993 16.2V14H23.1993C22.6744 14.9158 21.915 15.6752 20.9993 16.2V16.2ZM23.9093 12H19.9993C19.7341 12 19.4797 12.1054 19.2922 12.2929C19.1046 12.4804 18.9993 12.7348 18.9993 13V16.839C18.5053 16.871 17.8833 16.883 17.3733 16.874L17.9223 10H23.9093C24.0293 10.6613 24.0293 11.3387 23.9093 12ZM25.9993 8H22.9993V4H25.9993V8ZM49.9303 58.178L40.7823 59.841L32.9993 21.9V10H38.0713C37.918 11.1273 38.0091 12.2743 38.3383 13.3633C38.6674 14.4523 39.227 15.4577 39.979 16.3114C40.7309 17.165 41.6578 17.847 42.6965 18.3109C43.7353 18.7748 44.8617 19.0098 45.9993 19C46.2683 19 46.5313 18.977 46.7923 18.952L49.9303 58.178ZM46.6303 16.962C46.4207 16.9853 46.2101 16.9979 45.9993 17C45.1254 17.0048 44.2612 16.8177 43.4676 16.4518C42.6741 16.0859 41.9706 15.5502 41.4068 14.8825C40.8431 14.2148 40.4329 13.4314 40.2052 12.5877C39.9776 11.744 39.938 10.8607 40.0893 10H46.0763L46.6303 16.962ZM42.9993 4H45.9993V8H42.9993V4ZM37.9993 4H40.9993V8H37.9993V4ZM27.9993 8V4H35.9993V8H27.9993ZM28.9993 18.742V10H30.9993V20.985C30.449 20.9211 29.9414 20.6573 29.5727 20.2439C29.204 19.8304 29 19.296 28.9993 18.742V18.742Z" fill="black"/>
<path d="M13.847 35.8928L13.6816 37.9521L15.6762 38.1123L15.8416 36.053L13.847 35.8928Z" fill="black"/>
<path d="M35 5H33V7H35V5Z" fill="black"/>
</svg>
