<?xml version="1.0" encoding="UTF-8" standalone="no"?> <svg id="icon" xmlns="http://www.w3.org/2000/svg" viewBox="0 0 340 340"><title>21_deim jacket</title><path d="M99,68.909S39.615,164.117,6.34,287.928c0,0,19.346,14.234,44.108,15.049,0,0,19.4-61.412,42.2-103.618H99S110.8,114.925,99,68.909Z" style="fill:#bac9e8"/><path d="M263.221,180.391s27.061,59.457,23.855,136.716c0,0,30.151,4.316,46.584-11.193,0,0-13.115-146.989-46.584-222.237l-11.394-2.619Z" style="fill:#bac9e8"/><path d="M164.323,28.76s3.6-3.212,11.552-5.183a46.9,46.9,0,0,1,25.635,1.187c5.076,1.635,10.756,4.136,14.522,7.808l3.517,19.368-14.8,55.445L182.418,120.43,162.1,112.653,151.309,67.607A142.056,142.056,0,0,1,164.323,28.76Z" style="fill:#7b8bba"/><path d="M147.406,43.563S123.847,60.014,99,68.909c0,0-9.427,125.234-6.666,229.831l76.029,4.237,16.524-192.351s-2.362-11.59-9.31-19.445C175.578,91.181,154.707,72.51,147.406,43.563Z" style="fill:#bac9e8"/><path d="M164.323,28.76s-1.741,22.473,11.255,62.421L147.19,98.016s-3.327-21.121.216-54.453Z" style="fill:#fff"/><path d="M197.823,90.816S177.93,95.183,171.355,129.7c0,0-11.732,108.737-13.3,162.294a10.672,10.672,0,0,0,10.314,10.981l87.81,2.937s10.52-164.048,30.9-222.237l-64.6-37.807S214.758,84.805,197.823,90.816Z" style="fill:#bac9e8"/><path d="M216.032,32.572a156.7,156.7,0,0,1-18.209,58.244L222.6,102.642s6.056-28.076,4.443-53.348a10,10,0,0,0-2.148-5.612Z" style="fill:#fff"/><polygon points="215.613 144.727 214.302 173.27 234.467 185.289 253.429 173.27 257.465 148.95 215.613 144.727" style="fill:#fff"/><polygon points="215.854 133.608 215.613 144.727 237.473 158.249 257.465 148.95 258.86 136.397 215.854 133.608" style="fill:#fff"/><polygon points="113.803 140.349 113.803 172.017 132.803 181.067 151.839 173.27 154.949 140.349 113.803 140.349" style="fill:#fff"/><polygon points="112.873 128.261 155.879 129.656 154.949 140.349 136.352 152.437 113.803 140.349 112.873 128.261" style="fill:#fff"/><path d="M334.806,283.636c-5.124-44.066-18.974-143.916-44.532-201.381-.02-.044-.049-.08-.07-.123a3.465,3.465,0,0,0-.208-.365c-.048-.072-.094-.143-.146-.211a3.755,3.755,0,0,0-.257-.294c-.061-.063-.119-.129-.184-.187a3.394,3.394,0,0,0-.306-.235c-.071-.051-.138-.107-.213-.152-.014-.008-.024-.019-.038-.027l-47.027-27.69A3.5,3.5,0,0,0,238.273,59l44.575,26.246c-.784,2.392-1.552,4.943-2.306,7.617-20.174-10.78-43.561-23.853-49.865-27.387a152.3,152.3,0,0,0-.4-19.742,3.5,3.5,0,0,0-.75-1.862l-10.76-13.486c-.066-.081-.14-.152-.212-.226-.029-.031-.05-.067-.08-.1s-.038-.033-.056-.049-.029-.026-.043-.039c-3.57-3.443-8.879-6.318-15.794-8.545a50.4,50.4,0,0,0-27.55-1.254c-8.552,2.119-12.608,5.583-13.042,5.971l0,0L145.255,40.8c-1.942,1.336-24.292,16.534-47.433,24.819a3.5,3.5,0,0,0-2.311,3.032c-.021.282-.508,6.838-1.218,17.985,0,.007,0,.015,0,.022-1.449,22.758-3.83,64.678-5.1,111.749-19.887,37.063-37.3,88.862-41.247,100.938-17.78-1.309-32.441-9.651-37.572-12.92q1.968-7.23,4.054-14.313a116.368,116.368,0,0,0,26.579,13.086,3.5,3.5,0,0,0,2.228-6.637,110.315,110.315,0,0,1-26.7-13.5C40,187.6,72.028,124.021,90.047,91.4a3.5,3.5,0,1,0-6.127-3.385C65.577,121.223,32.83,186.271,9.107,265.436c-.014.049-.031.1-.043.145Q5.9,276.146,2.96,287.02a3.5,3.5,0,0,0,1.306,3.728c.826.607,20.514,14.886,46.067,15.727l.116,0a3.5,3.5,0,0,0,3.337-2.445c.172-.547,15.711-49.448,35.02-89.417-.572,27.792-.694,56.769.03,84.218a3.5,3.5,0,0,0,3.3,3.4l50.716,2.827q.1.006.2.006a3.5,3.5,0,0,0,.192-6.994l-47.493-2.647q-.207-8.64-.307-17.443l45.735,4.069h0l13.685,1.217c-.131,3-.239,5.891-.319,8.623a14.2,14.2,0,0,0,13.7,14.582l87.81,2.937.119,0a3.5,3.5,0,0,0,3.49-3.277c.1-1.556,9.718-148.854,27.875-212.3,22.717,57.222,35.321,147.85,40.217,189.763-13.7,8.768-30.381,9.5-37.131,9.387a348.1,348.1,0,0,0-12.611-80.475,3.5,3.5,0,0,0-6.74,1.889c6.58,23.477,14.055,60.326,12.3,102.557a3.5,3.5,0,0,0,3,3.61,77.064,77.064,0,0,0,10.139.606c10.823,0,27.922-1.939,39.343-12.719a3.5,3.5,0,0,0,1.084-2.857c-.029-.323-.7-7.63-2.07-19.631A3.47,3.47,0,0,0,334.806,283.636ZM218.457,41.222l4.94,6.192c1.582,19.241-1.74,41.007-3.377,50.117l-17.37-8.29A162.393,162.393,0,0,0,218.457,41.222ZM167.76,30.6a30.433,30.433,0,0,1,8.956-3.624A43.418,43.418,0,0,1,200.437,28.1a37.681,37.681,0,0,1,11.935,5.914c-.719,6.425-4.142,30.3-16.949,53.892a33.606,33.606,0,0,0-13.075,9.181,34.282,34.282,0,0,1-3.461-7.045C168.213,57.2,167.673,36.269,167.76,30.6ZM155.206,276.272l-9.854-.877,9.97-101.784V173.6l3.111-32.921s0-.009,0-.013l0-.013.93-10.693a3.5,3.5,0,0,0-3.374-3.8l-43.006-1.4a3.5,3.5,0,0,0-3.6,3.767l.92,11.956v31.531a3.5,3.5,0,0,0,2,3.161l19,9.05a3.5,3.5,0,0,0,2.832.079l13.659-5.594-9.41,96.063-22.006-1.958v-81.18a3.5,3.5,0,0,0-7,0v80.557L95.381,270.95C94.86,199.469,98.956,123.922,101.156,89l29.9-12.782a3.5,3.5,0,0,0-2.752-6.436l-26.639,11.39c.293-4.426.524-7.749.668-9.757C119.151,65.1,134.9,55.8,143.24,50.5c-2.4,29.143.364,47.246.492,48.061a3.5,3.5,0,0,0,4.277,2.858l14.509-3.493a3.5,3.5,0,1,0-1.639-6.805L150.2,93.693c-.733-7.271-1.868-24.615.55-48.4l10.11-8.846c.472,9.953,2.665,28.984,11.4,55.818,0,.017.015.031.021.047s.006.033.012.049a38.351,38.351,0,0,0,5.6,10.488c-4.035,6.1-7.741,14.533-9.963,26.2-.017.092-.031.186-.042.28C167.769,130.317,158.121,220.1,155.206,276.272ZM117.3,146.2l17.4,9.325a3.5,3.5,0,0,0,3.561-.15l12.525-8.141-2.23,23.6-15.644,6.407L117.3,169.806Zm-.157-8.027-.484-6.284,35.41,1.148-.462,5.311-15.429,10.029ZM254.83,276.581H242.954l13.937-102.794,4.027-24.264c0-.021,0-.042,0-.063.006-.042.017-.081.022-.123l1.394-12.553a3.5,3.5,0,0,0-3.252-3.879l-43.005-2.79a3.451,3.451,0,0,0-2.592.913,3.5,3.5,0,0,0-1.134,2.5l-.24,11.081-1.309,28.5a.048.048,0,0,0,0,.012v.009c-.019.469-1.874,47.448-2.187,89.9a3.5,3.5,0,0,0,3.474,3.525h.027a3.5,3.5,0,0,0,3.5-3.474c.246-33.511,1.457-69.854,1.961-83.787l15.1,9a3.5,3.5,0,0,0,3.665-.051l12.61-7.993-13.06,96.329H193.258A1282.667,1282.667,0,0,1,205.2,110.006a3.5,3.5,0,0,0-6.921-1.053,1290.6,1290.6,0,0,0-12.016,167.628h-12.6a3.5,3.5,0,1,0,0,7h80.616c-.659,8.5-1.116,14.985-1.37,18.722l-84.425-2.824a7.189,7.189,0,0,1-6.932-7.381c1.525-51.932,12.787-157.373,13.271-161.879,2.266-11.8,6.087-19.788,10.013-25.174.023-.023.05-.039.073-.063a3.5,3.5,0,0,0,.479-.666c4.981-6.518,10.017-8.958,12.164-9.752L221.094,105.8a3.5,3.5,0,0,0,4.928-2.421,246.719,246.719,0,0,0,4.2-30.134c9.16,5.12,30.321,16.894,48.467,26.564C266.337,148.752,258.388,232.4,254.83,276.581Zm-19.2-115.356a3.5,3.5,0,0,0,3.318.2l13.976-6.5-2.693,16.23L234.411,181.18l-16.517-9.843.942-20.5ZM219.155,142.8l.119-5.466,35.7,2.316-.773,6.954-16.5,7.672Zm71.537,171.138c.145-4.717.173-9.36.11-13.927.4.006.821.011,1.275.011,7.75,0,22.869-1.149,36.549-8.8.7,6.337,1.158,10.919,1.383,13.252C317.837,314.715,298.258,314.474,290.692,313.941Z" style="fill:#3f3f70"/><path d="M189.249,117.519a3.416,3.416,0,0,0-.6-.319,3.248,3.248,0,0,0-.659-.2,3.5,3.5,0,0,0-4.18,3.429,3.132,3.132,0,0,0,.069.68,2.951,2.951,0,0,0,.2.66,2.918,2.918,0,0,0,.319.6,3.069,3.069,0,0,0,.431.529,3.5,3.5,0,0,0,2.48,1.03,3.155,3.155,0,0,0,.68-.07,3.308,3.308,0,0,0,.659-.2,2.864,2.864,0,0,0,.6-.32,3.143,3.143,0,0,0,.53-.441,3.819,3.819,0,0,0,.441-.529,4.482,4.482,0,0,0,.32-.6,3.742,3.742,0,0,0,.2-.66,3.909,3.909,0,0,0,.07-.68,3.518,3.518,0,0,0-1.031-2.469A3.143,3.143,0,0,0,189.249,117.519Z" style="fill:#3f3f70"/><path d="M183.3,156.75a4.423,4.423,0,0,0-.61-.321,3.116,3.116,0,0,0-.649-.2,3.516,3.516,0,0,0-3.161.96,3.772,3.772,0,0,0-.44.531,4.183,4.183,0,0,0-.319.6,3.631,3.631,0,0,0-.2.66,3.835,3.835,0,0,0-.069.681,4.023,4.023,0,0,0,.069.689,3.766,3.766,0,0,0,.2.651,4.844,4.844,0,0,0,.319.609,3.763,3.763,0,0,0,.44.53,3.513,3.513,0,0,0,2.471,1.021,3.3,3.3,0,0,0,.69-.07,3.061,3.061,0,0,0,.649-.2,2.915,2.915,0,0,0,.61-.32,3.63,3.63,0,0,0,.531-.43,3.026,3.026,0,0,0,.429-.53,3.881,3.881,0,0,0,.33-.609,4.9,4.9,0,0,0,.2-.651,4.009,4.009,0,0,0,.06-.689,3.522,3.522,0,0,0-1.02-2.471A3.754,3.754,0,0,0,183.3,156.75Z" style="fill:#3f3f70"/><path d="M179.669,207.22a4.308,4.308,0,0,0-.6-.321,3.592,3.592,0,0,0-.659-.2,3.427,3.427,0,0,0-1.361,0,3.592,3.592,0,0,0-.659.2,4.252,4.252,0,0,0-.6.321,3.694,3.694,0,0,0-.531.44,3.219,3.219,0,0,0-.44.529,3.253,3.253,0,0,0-.32.611,3.088,3.088,0,0,0-.2.65,3.128,3.128,0,0,0-.07.68,3.223,3.223,0,0,0,.07.689,3.1,3.1,0,0,0,.2.651,3.621,3.621,0,0,0,.32.61,3.219,3.219,0,0,0,.44.529,3.13,3.13,0,0,0,.531.431,3.071,3.071,0,0,0,1.259.519,3.3,3.3,0,0,0,1.361,0,3.648,3.648,0,0,0,1.8-.95,3.685,3.685,0,0,0,.431-.529,3.615,3.615,0,0,0,.319-.61,3.042,3.042,0,0,0,.2-.651,3.287,3.287,0,0,0,.069-.689,3.512,3.512,0,0,0-1.02-2.47A4.343,4.343,0,0,0,179.669,207.22Z" style="fill:#3f3f70"/><path d="M178.81,250.21a4.6,4.6,0,0,0-.32-.611,3.888,3.888,0,0,0-.441-.53,3.175,3.175,0,0,0-.53-.43,3.519,3.519,0,0,0-4.419.43,3.681,3.681,0,0,0-.431.53,3.042,3.042,0,0,0-.319.611,2.987,2.987,0,0,0-.2.649,3.306,3.306,0,0,0-.069.691,3.51,3.51,0,0,0,1.02,2.469,3.735,3.735,0,0,0,.54.441,4.241,4.241,0,0,0,.6.319,3.518,3.518,0,0,0,.659.2,3.845,3.845,0,0,0,.681.071,3.8,3.8,0,0,0,.679-.071,3.506,3.506,0,0,0,.66-.2,4.241,4.241,0,0,0,.6-.319,3.7,3.7,0,0,0,.53-.441,3.516,3.516,0,0,0,1.031-2.469,3.18,3.18,0,0,0-.071-.691A3.827,3.827,0,0,0,178.81,250.21Z" style="fill:#3f3f70"/></svg>